<mxfile host="app.diagrams.net" modified="2023-11-17T17:40:30.592Z" agent="Mozilla/5.0 (Windows NT 10.0; Win64; x64) AppleWebKit/537.36 (KHTML, like Gecko) Chrome/119.0.0.0 Safari/537.36 Edg/119.0.0.0" etag="uaQ-FWksUkiqS8HQ85fQ" version="22.1.3" type="device">
  <diagram name="Page-1" id="q17DKDiXmMCJJl4ZwLc4">
    <mxGraphModel dx="3511" dy="636" grid="1" gridSize="10" guides="1" tooltips="1" connect="1" arrows="1" fold="1" page="1" pageScale="1" pageWidth="2339" pageHeight="3300" math="0" shadow="0">
      <root>
        <mxCell id="0" />
        <mxCell id="1" parent="0" />
        <mxCell id="7t0NmyDC2NJlsHodAtWq-15" value="&lt;b&gt;Consultant&lt;/b&gt;" style="whiteSpace=wrap;html=1;align=center;" parent="1" vertex="1">
          <mxGeometry x="80" y="622" width="100" height="40" as="geometry" />
        </mxCell>
        <mxCell id="7t0NmyDC2NJlsHodAtWq-16" value="" style="endArrow=none;html=1;rounded=0;exitX=0.5;exitY=1;exitDx=0;exitDy=0;entryX=0.36;entryY=1.035;entryDx=0;entryDy=0;entryPerimeter=0;" parent="1" source="7t0NmyDC2NJlsHodAtWq-27" target="7t0NmyDC2NJlsHodAtWq-15" edge="1">
          <mxGeometry relative="1" as="geometry">
            <mxPoint x="50" y="572" as="sourcePoint" />
            <mxPoint x="470" y="782" as="targetPoint" />
          </mxGeometry>
        </mxCell>
        <mxCell id="7t0NmyDC2NJlsHodAtWq-17" value="&lt;b&gt;Name&lt;/b&gt;&lt;span id=&quot;docs-internal-guid-22aa97f3-7fff-5628-ff60-64329fbdb07a&quot;&gt;&lt;/span&gt;&lt;span id=&quot;docs-internal-guid-22aa97f3-7fff-5628-ff60-64329fbdb07a&quot;&gt;&lt;/span&gt;" style="ellipse;whiteSpace=wrap;html=1;align=center;" parent="1" vertex="1">
          <mxGeometry x="140" y="730" width="100" height="40" as="geometry" />
        </mxCell>
        <mxCell id="7t0NmyDC2NJlsHodAtWq-18" value="" style="endArrow=none;html=1;rounded=0;exitX=0.5;exitY=0;exitDx=0;exitDy=0;entryX=0.64;entryY=0.995;entryDx=0;entryDy=0;entryPerimeter=0;" parent="1" source="7t0NmyDC2NJlsHodAtWq-17" target="7t0NmyDC2NJlsHodAtWq-15" edge="1">
          <mxGeometry relative="1" as="geometry">
            <mxPoint x="65" y="596" as="sourcePoint" />
            <mxPoint x="140" y="642" as="targetPoint" />
          </mxGeometry>
        </mxCell>
        <mxCell id="7t0NmyDC2NJlsHodAtWq-27" value="&lt;b style=&quot;border-color: var(--border-color);&quot;&gt;Consultant_id&lt;/b&gt;" style="ellipse;whiteSpace=wrap;html=1;align=center;fontStyle=4;" parent="1" vertex="1">
          <mxGeometry x="30" y="730" width="100" height="40" as="geometry" />
        </mxCell>
        <mxCell id="7t0NmyDC2NJlsHodAtWq-95" value="&lt;b&gt;Patient&lt;/b&gt;" style="whiteSpace=wrap;html=1;align=center;" parent="1" vertex="1">
          <mxGeometry x="410" y="622" width="100" height="40" as="geometry" />
        </mxCell>
        <mxCell id="7t0NmyDC2NJlsHodAtWq-97" value="&lt;b&gt;name&lt;/b&gt;" style="ellipse;whiteSpace=wrap;html=1;align=center;" parent="1" vertex="1">
          <mxGeometry x="330" y="720" width="100" height="40" as="geometry" />
        </mxCell>
        <mxCell id="7t0NmyDC2NJlsHodAtWq-98" value="" style="endArrow=none;html=1;rounded=0;exitX=0.612;exitY=0.025;exitDx=0;exitDy=0;entryX=0.159;entryY=0.965;entryDx=0;entryDy=0;entryPerimeter=0;exitPerimeter=0;" parent="1" source="7t0NmyDC2NJlsHodAtWq-97" target="7t0NmyDC2NJlsHodAtWq-95" edge="1">
          <mxGeometry relative="1" as="geometry">
            <mxPoint x="390" y="686.5" as="sourcePoint" />
            <mxPoint x="615" y="601.5" as="targetPoint" />
          </mxGeometry>
        </mxCell>
        <mxCell id="7t0NmyDC2NJlsHodAtWq-100" value="" style="endArrow=none;html=1;rounded=0;exitX=0.5;exitY=0;exitDx=0;exitDy=0;entryX=0.5;entryY=1;entryDx=0;entryDy=0;" parent="1" source="7t0NmyDC2NJlsHodAtWq-170" target="7t0NmyDC2NJlsHodAtWq-95" edge="1">
          <mxGeometry relative="1" as="geometry">
            <mxPoint x="520" y="686.5" as="sourcePoint" />
            <mxPoint x="565" y="446.5" as="targetPoint" />
          </mxGeometry>
        </mxCell>
        <mxCell id="7t0NmyDC2NJlsHodAtWq-110" value="&lt;b&gt;Ward&lt;/b&gt;" style="whiteSpace=wrap;html=1;align=center;" parent="1" vertex="1">
          <mxGeometry x="740" y="622" width="100" height="40" as="geometry" />
        </mxCell>
        <mxCell id="7t0NmyDC2NJlsHodAtWq-111" value="&lt;b&gt;Name&lt;/b&gt;" style="ellipse;whiteSpace=wrap;html=1;align=center;" parent="1" vertex="1">
          <mxGeometry x="680" y="720" width="100" height="40" as="geometry" />
        </mxCell>
        <mxCell id="7t0NmyDC2NJlsHodAtWq-112" value="" style="endArrow=none;html=1;rounded=0;exitX=0.5;exitY=0;exitDx=0;exitDy=0;entryX=0.25;entryY=1;entryDx=0;entryDy=0;" parent="1" source="7t0NmyDC2NJlsHodAtWq-111" target="7t0NmyDC2NJlsHodAtWq-110" edge="1">
          <mxGeometry relative="1" as="geometry">
            <mxPoint x="1105" y="679" as="sourcePoint" />
            <mxPoint x="905" y="635" as="targetPoint" />
          </mxGeometry>
        </mxCell>
        <mxCell id="7t0NmyDC2NJlsHodAtWq-113" value="" style="endArrow=none;html=1;rounded=0;exitX=0.5;exitY=0;exitDx=0;exitDy=0;entryX=0.75;entryY=1;entryDx=0;entryDy=0;" parent="1" source="7t0NmyDC2NJlsHodAtWq-145" target="7t0NmyDC2NJlsHodAtWq-110" edge="1">
          <mxGeometry relative="1" as="geometry">
            <mxPoint x="850" y="720" as="sourcePoint" />
            <mxPoint x="855" y="480" as="targetPoint" />
          </mxGeometry>
        </mxCell>
        <mxCell id="7t0NmyDC2NJlsHodAtWq-145" value="&lt;b style=&quot;border-color: var(--border-color);&quot;&gt;Ward_id&lt;/b&gt;" style="ellipse;whiteSpace=wrap;html=1;align=center;fontStyle=4;" parent="1" vertex="1">
          <mxGeometry x="800" y="720" width="100" height="40" as="geometry" />
        </mxCell>
        <mxCell id="7t0NmyDC2NJlsHodAtWq-170" value="&lt;b&gt;Patient_id&lt;/b&gt;" style="ellipse;whiteSpace=wrap;html=1;align=center;fontStyle=4;" parent="1" vertex="1">
          <mxGeometry x="390" y="760" width="100" height="40" as="geometry" />
        </mxCell>
        <mxCell id="z7QksqLc8O3OVQPdsFzb-7" value="&lt;b&gt;Date_Of_Birth&lt;/b&gt;" style="ellipse;whiteSpace=wrap;html=1;align=center;" vertex="1" parent="1">
          <mxGeometry x="460" y="720" width="100" height="40" as="geometry" />
        </mxCell>
        <mxCell id="z7QksqLc8O3OVQPdsFzb-8" value="" style="endArrow=none;html=1;rounded=0;exitX=0.5;exitY=0;exitDx=0;exitDy=0;entryX=0.75;entryY=1;entryDx=0;entryDy=0;" edge="1" parent="1" source="z7QksqLc8O3OVQPdsFzb-7" target="7t0NmyDC2NJlsHodAtWq-95">
          <mxGeometry relative="1" as="geometry">
            <mxPoint x="1035" y="646.5" as="sourcePoint" />
            <mxPoint x="676" y="626.5" as="targetPoint" />
          </mxGeometry>
        </mxCell>
        <mxCell id="z7QksqLc8O3OVQPdsFzb-9" style="edgeStyle=orthogonalEdgeStyle;rounded=0;orthogonalLoop=1;jettySize=auto;html=1;exitX=0.5;exitY=1;exitDx=0;exitDy=0;" edge="1" parent="1" source="7t0NmyDC2NJlsHodAtWq-170" target="7t0NmyDC2NJlsHodAtWq-170">
          <mxGeometry relative="1" as="geometry" />
        </mxCell>
        <mxCell id="z7QksqLc8O3OVQPdsFzb-11" value="&lt;b style=&quot;border-color: var(--border-color);&quot;&gt;Is hosted by&lt;/b&gt;" style="shape=rhombus;perimeter=rhombusPerimeter;whiteSpace=wrap;html=1;align=center;" vertex="1" parent="1">
          <mxGeometry x="560" y="612" width="120" height="60" as="geometry" />
        </mxCell>
        <mxCell id="z7QksqLc8O3OVQPdsFzb-12" value="" style="endArrow=none;html=1;rounded=0;entryX=1;entryY=0.5;entryDx=0;entryDy=0;exitX=0;exitY=0.5;exitDx=0;exitDy=0;" edge="1" parent="1" source="7t0NmyDC2NJlsHodAtWq-110" target="z7QksqLc8O3OVQPdsFzb-11">
          <mxGeometry relative="1" as="geometry">
            <mxPoint x="430" y="790" as="sourcePoint" />
            <mxPoint x="590" y="790" as="targetPoint" />
          </mxGeometry>
        </mxCell>
        <mxCell id="z7QksqLc8O3OVQPdsFzb-13" value="" style="resizable=0;html=1;whiteSpace=wrap;align=right;verticalAlign=bottom;" connectable="0" vertex="1" parent="z7QksqLc8O3OVQPdsFzb-12">
          <mxGeometry x="1" relative="1" as="geometry" />
        </mxCell>
        <mxCell id="z7QksqLc8O3OVQPdsFzb-14" value="" style="shape=link;html=1;rounded=0;entryX=0;entryY=0.5;entryDx=0;entryDy=0;exitX=1;exitY=0.5;exitDx=0;exitDy=0;" edge="1" parent="1" source="7t0NmyDC2NJlsHodAtWq-95" target="z7QksqLc8O3OVQPdsFzb-11">
          <mxGeometry relative="1" as="geometry">
            <mxPoint x="530" y="792" as="sourcePoint" />
            <mxPoint x="690" y="792" as="targetPoint" />
          </mxGeometry>
        </mxCell>
        <mxCell id="z7QksqLc8O3OVQPdsFzb-16" value="&lt;b&gt;1&lt;/b&gt;" style="text;html=1;align=center;verticalAlign=middle;resizable=0;points=[];autosize=1;strokeColor=none;fillColor=none;" vertex="1" parent="1">
          <mxGeometry x="710" y="612" width="30" height="30" as="geometry" />
        </mxCell>
        <mxCell id="z7QksqLc8O3OVQPdsFzb-17" value="&lt;b&gt;m&lt;/b&gt;" style="text;html=1;align=center;verticalAlign=middle;resizable=0;points=[];autosize=1;strokeColor=none;fillColor=none;" vertex="1" parent="1">
          <mxGeometry x="505" y="610" width="30" height="30" as="geometry" />
        </mxCell>
        <mxCell id="z7QksqLc8O3OVQPdsFzb-18" value="&lt;b&gt;Is assigned&lt;/b&gt;" style="shape=rhombus;perimeter=rhombusPerimeter;whiteSpace=wrap;html=1;align=center;" vertex="1" parent="1">
          <mxGeometry x="230" y="612" width="120" height="60" as="geometry" />
        </mxCell>
        <mxCell id="z7QksqLc8O3OVQPdsFzb-19" value="" style="endArrow=none;html=1;rounded=0;exitX=1;exitY=0.5;exitDx=0;exitDy=0;entryX=0;entryY=0.5;entryDx=0;entryDy=0;" edge="1" parent="1" source="7t0NmyDC2NJlsHodAtWq-15" target="z7QksqLc8O3OVQPdsFzb-18">
          <mxGeometry relative="1" as="geometry">
            <mxPoint x="420" y="640" as="sourcePoint" />
            <mxPoint x="580" y="640" as="targetPoint" />
          </mxGeometry>
        </mxCell>
        <mxCell id="z7QksqLc8O3OVQPdsFzb-21" value="" style="shape=link;html=1;rounded=0;exitX=1;exitY=0.5;exitDx=0;exitDy=0;entryX=0;entryY=0.5;entryDx=0;entryDy=0;" edge="1" parent="1" source="z7QksqLc8O3OVQPdsFzb-18" target="7t0NmyDC2NJlsHodAtWq-95">
          <mxGeometry relative="1" as="geometry">
            <mxPoint x="420" y="640" as="sourcePoint" />
            <mxPoint x="580" y="640" as="targetPoint" />
          </mxGeometry>
        </mxCell>
        <mxCell id="z7QksqLc8O3OVQPdsFzb-23" value="&lt;b&gt;m&lt;/b&gt;" style="text;html=1;align=center;verticalAlign=middle;resizable=0;points=[];autosize=1;strokeColor=none;fillColor=none;" vertex="1" parent="1">
          <mxGeometry x="380" y="610" width="30" height="30" as="geometry" />
        </mxCell>
        <mxCell id="z7QksqLc8O3OVQPdsFzb-24" value="&lt;b&gt;m&lt;/b&gt;" style="text;html=1;align=center;verticalAlign=middle;resizable=0;points=[];autosize=1;strokeColor=none;fillColor=none;" vertex="1" parent="1">
          <mxGeometry x="180" y="610" width="30" height="30" as="geometry" />
        </mxCell>
        <mxCell id="z7QksqLc8O3OVQPdsFzb-25" value="&lt;b&gt;Nurse&lt;/b&gt;" style="whiteSpace=wrap;html=1;align=center;" vertex="1" parent="1">
          <mxGeometry x="730" y="410" width="100" height="40" as="geometry" />
        </mxCell>
        <mxCell id="z7QksqLc8O3OVQPdsFzb-26" value="&lt;b&gt;name&lt;/b&gt;" style="ellipse;whiteSpace=wrap;html=1;align=center;" vertex="1" parent="1">
          <mxGeometry x="650" y="330" width="100" height="40" as="geometry" />
        </mxCell>
        <mxCell id="z7QksqLc8O3OVQPdsFzb-27" value="" style="endArrow=none;html=1;rounded=0;exitX=0.58;exitY=1.025;exitDx=0;exitDy=0;entryX=0;entryY=0;entryDx=0;entryDy=0;exitPerimeter=0;" edge="1" parent="1" source="z7QksqLc8O3OVQPdsFzb-26" target="z7QksqLc8O3OVQPdsFzb-25">
          <mxGeometry relative="1" as="geometry">
            <mxPoint x="710" y="474.5" as="sourcePoint" />
            <mxPoint x="935" y="389.5" as="targetPoint" />
          </mxGeometry>
        </mxCell>
        <mxCell id="z7QksqLc8O3OVQPdsFzb-28" value="" style="endArrow=none;html=1;rounded=0;exitX=0.5;exitY=0;exitDx=0;exitDy=0;entryX=0.5;entryY=0;entryDx=0;entryDy=0;" edge="1" parent="1" source="z7QksqLc8O3OVQPdsFzb-29" target="z7QksqLc8O3OVQPdsFzb-25">
          <mxGeometry relative="1" as="geometry">
            <mxPoint x="840" y="474.5" as="sourcePoint" />
            <mxPoint x="885" y="234.5" as="targetPoint" />
          </mxGeometry>
        </mxCell>
        <mxCell id="z7QksqLc8O3OVQPdsFzb-29" value="&lt;b&gt;number&lt;/b&gt;" style="ellipse;whiteSpace=wrap;html=1;align=center;fontStyle=4;" vertex="1" parent="1">
          <mxGeometry x="730" y="300" width="100" height="40" as="geometry" />
        </mxCell>
        <mxCell id="z7QksqLc8O3OVQPdsFzb-30" value="&lt;b&gt;address&lt;/b&gt;" style="ellipse;whiteSpace=wrap;html=1;align=center;" vertex="1" parent="1">
          <mxGeometry x="825" y="330" width="100" height="40" as="geometry" />
        </mxCell>
        <mxCell id="z7QksqLc8O3OVQPdsFzb-31" value="" style="endArrow=none;html=1;rounded=0;entryX=1;entryY=0;entryDx=0;entryDy=0;exitX=0.5;exitY=1;exitDx=0;exitDy=0;" edge="1" parent="1" source="z7QksqLc8O3OVQPdsFzb-30" target="z7QksqLc8O3OVQPdsFzb-25">
          <mxGeometry relative="1" as="geometry">
            <mxPoint x="847.5" y="380" as="sourcePoint" />
            <mxPoint x="996" y="414.5" as="targetPoint" />
          </mxGeometry>
        </mxCell>
        <mxCell id="z7QksqLc8O3OVQPdsFzb-32" value="&lt;b&gt;Drug&lt;/b&gt;" style="whiteSpace=wrap;html=1;align=center;" vertex="1" parent="1">
          <mxGeometry x="59.3" y="410" width="100" height="40" as="geometry" />
        </mxCell>
        <mxCell id="z7QksqLc8O3OVQPdsFzb-34" value="" style="endArrow=none;html=1;rounded=0;exitX=0.632;exitY=1.025;exitDx=0;exitDy=0;entryX=0;entryY=0;entryDx=0;entryDy=0;exitPerimeter=0;" edge="1" parent="1" target="z7QksqLc8O3OVQPdsFzb-32">
          <mxGeometry relative="1" as="geometry">
            <mxPoint x="32.499999999999815" y="361" as="sourcePoint" />
            <mxPoint x="264.3" y="389.5" as="targetPoint" />
          </mxGeometry>
        </mxCell>
        <mxCell id="z7QksqLc8O3OVQPdsFzb-35" value="" style="endArrow=none;html=1;rounded=0;exitX=0.5;exitY=0;exitDx=0;exitDy=0;entryX=0.5;entryY=0;entryDx=0;entryDy=0;" edge="1" parent="1" source="z7QksqLc8O3OVQPdsFzb-36" target="z7QksqLc8O3OVQPdsFzb-32">
          <mxGeometry relative="1" as="geometry">
            <mxPoint x="169.3" y="474.5" as="sourcePoint" />
            <mxPoint x="214.3" y="234.5" as="targetPoint" />
          </mxGeometry>
        </mxCell>
        <mxCell id="z7QksqLc8O3OVQPdsFzb-36" value="&lt;b&gt;Code number&lt;/b&gt;" style="ellipse;whiteSpace=wrap;html=1;align=center;fontStyle=4;" vertex="1" parent="1">
          <mxGeometry x="74.3" y="300" width="100" height="40" as="geometry" />
        </mxCell>
        <mxCell id="z7QksqLc8O3OVQPdsFzb-37" value="&lt;b&gt;Recommended dosage&lt;/b&gt;" style="ellipse;whiteSpace=wrap;html=1;align=center;" vertex="1" parent="1">
          <mxGeometry x="154.3" y="330" width="100" height="40" as="geometry" />
        </mxCell>
        <mxCell id="z7QksqLc8O3OVQPdsFzb-38" value="" style="endArrow=none;html=1;rounded=0;entryX=1;entryY=0;entryDx=0;entryDy=0;exitX=0.5;exitY=1;exitDx=0;exitDy=0;" edge="1" parent="1" source="z7QksqLc8O3OVQPdsFzb-37" target="z7QksqLc8O3OVQPdsFzb-32">
          <mxGeometry relative="1" as="geometry">
            <mxPoint x="176.8" y="380" as="sourcePoint" />
            <mxPoint x="325.3" y="414.5" as="targetPoint" />
          </mxGeometry>
        </mxCell>
        <mxCell id="z7QksqLc8O3OVQPdsFzb-39" value="&lt;b&gt;Brand name&lt;/b&gt;" style="ellipse;shape=doubleEllipse;margin=3;whiteSpace=wrap;html=1;align=center;" vertex="1" parent="1">
          <mxGeometry x="-20" y="320" width="100" height="40" as="geometry" />
        </mxCell>
        <mxCell id="z7QksqLc8O3OVQPdsFzb-40" value="&lt;b style=&quot;border-color: var(--border-color);&quot;&gt;Gives&lt;/b&gt;" style="shape=rhombus;perimeter=rhombusPerimeter;whiteSpace=wrap;html=1;align=center;" vertex="1" parent="1">
          <mxGeometry x="400" y="400" width="120" height="60" as="geometry" />
        </mxCell>
        <mxCell id="z7QksqLc8O3OVQPdsFzb-43" value="" style="endArrow=none;html=1;rounded=0;exitX=0;exitY=0.5;exitDx=0;exitDy=0;entryX=1;entryY=0.5;entryDx=0;entryDy=0;" edge="1" parent="1" source="z7QksqLc8O3OVQPdsFzb-25" target="z7QksqLc8O3OVQPdsFzb-40">
          <mxGeometry relative="1" as="geometry">
            <mxPoint x="350" y="470" as="sourcePoint" />
            <mxPoint x="510" y="470" as="targetPoint" />
          </mxGeometry>
        </mxCell>
        <mxCell id="z7QksqLc8O3OVQPdsFzb-44" value="" style="endArrow=none;html=1;rounded=0;entryX=0.5;entryY=1;entryDx=0;entryDy=0;" edge="1" parent="1" source="7t0NmyDC2NJlsHodAtWq-95" target="z7QksqLc8O3OVQPdsFzb-40">
          <mxGeometry relative="1" as="geometry">
            <mxPoint x="470" y="340" as="sourcePoint" />
            <mxPoint x="470" y="410" as="targetPoint" />
          </mxGeometry>
        </mxCell>
        <mxCell id="z7QksqLc8O3OVQPdsFzb-45" value="" style="endArrow=none;html=1;rounded=0;exitX=1;exitY=0.5;exitDx=0;exitDy=0;entryX=0;entryY=0.5;entryDx=0;entryDy=0;" edge="1" parent="1" source="z7QksqLc8O3OVQPdsFzb-32" target="z7QksqLc8O3OVQPdsFzb-40">
          <mxGeometry relative="1" as="geometry">
            <mxPoint x="480" y="350" as="sourcePoint" />
            <mxPoint x="480" y="420" as="targetPoint" />
          </mxGeometry>
        </mxCell>
        <mxCell id="z7QksqLc8O3OVQPdsFzb-46" value="&lt;b&gt;specified dosage&lt;/b&gt;" style="ellipse;whiteSpace=wrap;html=1;align=center;" vertex="1" parent="1">
          <mxGeometry x="509.99999999999994" y="315" width="100" height="40" as="geometry" />
        </mxCell>
        <mxCell id="z7QksqLc8O3OVQPdsFzb-47" value="&lt;b&gt;date&lt;/b&gt;" style="ellipse;whiteSpace=wrap;html=1;align=center;" vertex="1" parent="1">
          <mxGeometry x="410" y="300" width="100" height="40" as="geometry" />
        </mxCell>
        <mxCell id="z7QksqLc8O3OVQPdsFzb-48" value="" style="endArrow=none;html=1;rounded=0;entryX=1;entryY=0;entryDx=0;entryDy=0;exitX=0.41;exitY=1.01;exitDx=0;exitDy=0;exitPerimeter=0;" edge="1" parent="1" source="z7QksqLc8O3OVQPdsFzb-46">
          <mxGeometry relative="1" as="geometry">
            <mxPoint x="660" y="265.21999999999997" as="sourcePoint" />
            <mxPoint x="490" y="414.77" as="targetPoint" />
          </mxGeometry>
        </mxCell>
        <mxCell id="z7QksqLc8O3OVQPdsFzb-49" value="" style="endArrow=none;html=1;rounded=0;entryX=0.5;entryY=0;entryDx=0;entryDy=0;exitX=0.5;exitY=1;exitDx=0;exitDy=0;" edge="1" parent="1" source="z7QksqLc8O3OVQPdsFzb-47" target="z7QksqLc8O3OVQPdsFzb-40">
          <mxGeometry relative="1" as="geometry">
            <mxPoint x="575" y="270" as="sourcePoint" />
            <mxPoint x="530" y="310" as="targetPoint" />
          </mxGeometry>
        </mxCell>
        <mxCell id="z7QksqLc8O3OVQPdsFzb-51" value="&lt;b&gt;time&lt;/b&gt;" style="ellipse;whiteSpace=wrap;html=1;align=center;" vertex="1" parent="1">
          <mxGeometry x="310" y="315" width="100" height="40" as="geometry" />
        </mxCell>
        <mxCell id="z7QksqLc8O3OVQPdsFzb-52" value="" style="endArrow=none;html=1;rounded=0;entryX=0;entryY=0;entryDx=0;entryDy=0;exitX=0.5;exitY=1;exitDx=0;exitDy=0;" edge="1" parent="1" source="z7QksqLc8O3OVQPdsFzb-51" target="z7QksqLc8O3OVQPdsFzb-40">
          <mxGeometry relative="1" as="geometry">
            <mxPoint x="395" y="349" as="sourcePoint" />
            <mxPoint x="440" y="425" as="targetPoint" />
          </mxGeometry>
        </mxCell>
        <mxCell id="z7QksqLc8O3OVQPdsFzb-53" value="&lt;b style=&quot;border-color: var(--border-color);&quot;&gt;Supervises&lt;/b&gt;" style="shape=rhombus;perimeter=rhombusPerimeter;whiteSpace=wrap;html=1;align=center;" vertex="1" parent="1">
          <mxGeometry x="660" y="500" width="120" height="60" as="geometry" />
        </mxCell>
        <mxCell id="z7QksqLc8O3OVQPdsFzb-54" value="&lt;b style=&quot;border-color: var(--border-color);&quot;&gt;Serves&lt;/b&gt;" style="shape=rhombus;perimeter=rhombusPerimeter;whiteSpace=wrap;html=1;align=center;" vertex="1" parent="1">
          <mxGeometry x="800" y="500" width="120" height="60" as="geometry" />
        </mxCell>
        <mxCell id="z7QksqLc8O3OVQPdsFzb-55" value="" style="endArrow=none;html=1;rounded=0;entryX=0.25;entryY=1;entryDx=0;entryDy=0;exitX=0.5;exitY=0;exitDx=0;exitDy=0;" edge="1" parent="1" source="z7QksqLc8O3OVQPdsFzb-53" target="z7QksqLc8O3OVQPdsFzb-25">
          <mxGeometry relative="1" as="geometry">
            <mxPoint x="550" y="490" as="sourcePoint" />
            <mxPoint x="710" y="490" as="targetPoint" />
          </mxGeometry>
        </mxCell>
        <mxCell id="z7QksqLc8O3OVQPdsFzb-56" value="" style="shape=link;html=1;rounded=0;entryX=0.5;entryY=1;entryDx=0;entryDy=0;exitX=0.25;exitY=0;exitDx=0;exitDy=0;" edge="1" parent="1" source="7t0NmyDC2NJlsHodAtWq-110" target="z7QksqLc8O3OVQPdsFzb-53">
          <mxGeometry relative="1" as="geometry">
            <mxPoint x="550" y="490" as="sourcePoint" />
            <mxPoint x="710" y="490" as="targetPoint" />
          </mxGeometry>
        </mxCell>
        <mxCell id="z7QksqLc8O3OVQPdsFzb-58" value="&lt;b&gt;1&lt;/b&gt;" style="text;html=1;align=center;verticalAlign=middle;resizable=0;points=[];autosize=1;strokeColor=none;fillColor=none;" vertex="1" parent="1">
          <mxGeometry x="740" y="448" width="30" height="30" as="geometry" />
        </mxCell>
        <mxCell id="z7QksqLc8O3OVQPdsFzb-59" value="&lt;b&gt;1&lt;/b&gt;" style="text;html=1;align=center;verticalAlign=middle;resizable=0;points=[];autosize=1;strokeColor=none;fillColor=none;" vertex="1" parent="1">
          <mxGeometry x="745" y="590" width="30" height="30" as="geometry" />
        </mxCell>
        <mxCell id="z7QksqLc8O3OVQPdsFzb-61" value="" style="shape=link;html=1;rounded=0;entryX=0.5;entryY=1;entryDx=0;entryDy=0;exitX=0.75;exitY=0;exitDx=0;exitDy=0;" edge="1" parent="1" source="7t0NmyDC2NJlsHodAtWq-110" target="z7QksqLc8O3OVQPdsFzb-54">
          <mxGeometry relative="1" as="geometry">
            <mxPoint x="550" y="490" as="sourcePoint" />
            <mxPoint x="710" y="490" as="targetPoint" />
          </mxGeometry>
        </mxCell>
        <mxCell id="z7QksqLc8O3OVQPdsFzb-62" value="" style="resizable=0;html=1;whiteSpace=wrap;align=right;verticalAlign=bottom;" connectable="0" vertex="1" parent="z7QksqLc8O3OVQPdsFzb-61">
          <mxGeometry x="1" relative="1" as="geometry" />
        </mxCell>
        <mxCell id="z7QksqLc8O3OVQPdsFzb-63" value="" style="shape=link;html=1;rounded=0;entryX=0.75;entryY=1;entryDx=0;entryDy=0;exitX=0.5;exitY=0;exitDx=0;exitDy=0;" edge="1" parent="1" source="z7QksqLc8O3OVQPdsFzb-54" target="z7QksqLc8O3OVQPdsFzb-25">
          <mxGeometry relative="1" as="geometry">
            <mxPoint x="815" y="630" as="sourcePoint" />
            <mxPoint x="860" y="570" as="targetPoint" />
          </mxGeometry>
        </mxCell>
        <mxCell id="z7QksqLc8O3OVQPdsFzb-64" value="" style="resizable=0;html=1;whiteSpace=wrap;align=right;verticalAlign=bottom;" connectable="0" vertex="1" parent="z7QksqLc8O3OVQPdsFzb-63">
          <mxGeometry x="1" relative="1" as="geometry" />
        </mxCell>
        <mxCell id="z7QksqLc8O3OVQPdsFzb-65" value="&lt;b&gt;m&lt;/b&gt;" style="text;html=1;align=center;verticalAlign=middle;resizable=0;points=[];autosize=1;strokeColor=none;fillColor=none;" vertex="1" parent="1">
          <mxGeometry x="820" y="448" width="30" height="30" as="geometry" />
        </mxCell>
        <mxCell id="z7QksqLc8O3OVQPdsFzb-66" value="&lt;b&gt;1&lt;/b&gt;" style="text;html=1;align=center;verticalAlign=middle;resizable=0;points=[];autosize=1;strokeColor=none;fillColor=none;" vertex="1" parent="1">
          <mxGeometry x="820" y="592" width="30" height="30" as="geometry" />
        </mxCell>
      </root>
    </mxGraphModel>
  </diagram>
</mxfile>
